<svg id="visual" viewBox="0 0 960 200" width="960" height="200" xmlns="http://www.w3.org/2000/svg" xmlns:xlink="http://www.w3.org/1999/xlink" version="1.1"><rect x="0" y="0" width="960" height="200" fill="#FAF2D3"></rect><path d="M0 119L32 119.7C64 120.3 128 121.7 192 122.2C256 122.7 320 122.3 384 116.3C448 110.3 512 98.7 576 90.8C640 83 704 79 768 80.5C832 82 896 89 928 92.5L960 96L960 201L928 201C896 201 832 201 768 201C704 201 640 201 576 201C512 201 448 201 384 201C320 201 256 201 192 201C128 201 64 201 32 201L0 201Z" fill="#3085C3" stroke-linecap="round" stroke-linejoin="miter"></path></svg>