<svg id="visual" viewBox="0 0 1920 100" width="1920" height="100" xmlns="http://www.w3.org/2000/svg" xmlns:xlink="http://www.w3.org/1999/xlink" version="1.1"><rect x="0" y="0" width="1920" height="100" fill="#FAF2D3"></rect><path d="M0 59L64 59.3C128 59.7 256 60.3 384 60.5C512 60.7 640 60.3 768 57.3C896 54.3 1024 48.7 1152 44.8C1280 41 1408 39 1536 39.8C1664 40.7 1792 44.3 1856 46.2L1920 48L1920 101L1856 101C1792 101 1664 101 1536 101C1408 101 1280 101 1152 101C1024 101 896 101 768 101C640 101 512 101 384 101C256 101 128 101 64 101L0 101Z" fill="#3085C3" stroke-linecap="round" stroke-linejoin="miter"></path></svg>